<svg width="100" height="100" viewBox="0 0 24 24" fill="none" xmlns="http://www.w3.org/2000/svg">
  <path d="M18.92 6.01C18.72 5.42 18.16 5 17.5 5H6.5C5.84 5 5.28 5.42 5.08 6.01L3 12V20C3 20.55 3.45 21 4 21H5C5.55 21 6 20.55 6 20V19H18V20C18 20.55 18.45 21 19 21H20C20.55 21 21 20.55 21 20V12L18.92 6.01ZM6.5 7H17.5L18.57 10.11C18.81 10.74 18.33 11.41 17.65 11.41H6.35C5.67 11.41 5.19 10.74 5.43 10.11L6.5 7ZM5 17C4.45 17 4 16.55 4 16C4 15.45 4.45 15 5 15C5.55 15 6 15.45 6 16C6 16.55 5.55 17 5 17ZM19 17C18.45 17 18 16.55 18 16C18 15.45 18.45 15 19 15C19.55 15 20 15.45 20 16C20 16.55 19.55 17 19 17Z" fill="black"/>
</svg>